<svg xmlns="http://www.w3.org/2000/svg" viewBox="0 0 720 720"><path style="fill:#A9ABAD;" d="M499.7,26.7h-279C99,26.7,26.7,99,26.7,220.3v279C26.7,620.7,99,693,220.3,693h279 C620.7,693,693,620.7,693,499.3v-279C693.3,99,621,26.7,499.7,26.7z"/><path style="fill:#5B5F63;" d="M400,440c0,35.3-15.3,67.3-40,89.3c-21.3,19.3-49.3,30.7-80,30.7c-66.3,0-120-53.7-120-120 c0-55.3,37.7-102,88.3-115.7c13.7,34.7,43.3,61.7,80,71.7c10,2.7,20.7,4.3,31.7,4.3s21.7-1.3,31.7-4.3C397,409.3,400,424.3,400,440z"/><path style="fill:#292D32;" d="M480,280c0,15.7-3,30.7-8.3,44.3C458,359,428.3,386,391.7,396c-10,2.7-20.7,4.3-31.7,4.3s-21.7-1.3-31.7-4.3 c-36.7-10-66.3-36.7-80-71.7c-5.3-13.7-8.3-28.7-8.3-44.3c0-66.3,53.7-120,120-120S480,213.7,480,280z"/><path style="fill:#76797C;" d="M560,440c0,66.3-53.7,120-120,120c-30.7,0-58.7-11.7-80-30.7c24.7-21.7,40-53.7,40-89.3c0-15.7-3-30.7-8.3-44.3 c36.7-10,66.3-36.7,80-71.7C522.3,338,560,384.7,560,440z"/></svg>
