<svg xmlns="http://www.w3.org/2000/svg" viewBox="0 0 635.35 640"><path d="M677.17,486.24A194.16,194.16,0,0,1,664,556.72,191.75,191.75,0,0,1,536.7,670.78a193.73,193.73,0,0,1-50.43,6.84c-17.5,0-34.52-2.06-50.43-6.84A190.3,190.3,0,0,1,308.57,556.72a195.45,195.45,0,0,1-13.2-70.48,190.9,190.9,0,1,1,381.8,0Z" transform="translate(-41.83 -41.84)" style="fill:#385cfa;mix-blend-mode:lighten"/><path d="M423.63,490.46a194.16,194.16,0,0,1-13.2,70.48A191.79,191.79,0,0,1,283.16,675a194.16,194.16,0,0,1-50.43,6.84c-17.5,0-34.52-2.07-50.43-6.84A190.3,190.3,0,0,1,55,560.94a195.45,195.45,0,0,1-13.2-70.48,190.9,190.9,0,0,1,381.8,0Z" transform="translate(-41.83 -41.84)" style="fill:#5cfa38;mix-blend-mode:lighten"/><path d="M550.9,232.74a194.16,194.16,0,0,1-13.2,70.48A191.79,191.79,0,0,1,410.43,417.28,193.73,193.73,0,0,1,360,424.12c-17.5,0-34.52-2.07-50.43-6.84A190.28,190.28,0,0,1,182.3,303.22a195.46,195.46,0,0,1-13.21-70.48,190.91,190.91,0,0,1,381.81,0Z" transform="translate(-41.83 -41.84)" style="fill:#fa385c;mix-blend-mode:lighten"/></svg>