<svg xmlns="http://www.w3.org/2000/svg" xmlns:xlink="http://www.w3.org/1999/xlink" viewBox="0 0 31.9 32"><linearGradient id="svg" gradientUnits="userSpaceOnUse" x1="-559.6384" y1="26.5649" x2="-559.0541" y2="27.2729" gradientTransform="matrix(31.8754 0 0 28.4068 17845.9961 -754.5071)"><stop offset="0.75" style="stop-color:#244BF9"/><stop offset="1" style="stop-color:#757680"/></linearGradient><path fill="url(#svg)" d=" M31.8,4.7l-15,26.8c-0.3,0.6-1.1,0.6-1.4,0L0.1,4.7C-0.2,4.1,0.3,3.4,1,3.5l15,2.7c0.1,0,0.2,0,0.3,0L31,3.5 C31.6,3.4,32.1,4.1,31.8,4.7z"/><path style="fill:#04043B;" d="M23.1,0L12,2.2c-0.2,0-0.3,0.2-0.3,0.4L11,14.1c0,0.2,0.2,0.4,0.4,0.4h0.1l3.1-0.7c0.3-0.1,0.5,0.2,0.5,0.5 l-0.9,4.5c-0.1,0.3,0.2,0.6,0.5,0.5l1.9-0.6c0.3-0.1,0.6,0.2,0.5,0.5l-1.5,7.1c-0.1,0.4,0.5,0.7,0.7,0.3l0.2-0.3l9-18 c0.2-0.3-0.1-0.6-0.4-0.6L22,8.2c-0.3,0.1-0.6-0.2-0.5-0.5l2.1-7.2C23.6,0.2,23.4-0.1,23.1,0L23.1,0z"/></svg>